{
  "accessors": [
    {
      "bufferView": 2,
      "componentType": 5126,
      "count": 1326,
      "max": [
        8.0,
        1.0,
        8.0
      ],
      "min": [
        -8.0,
        -1.0,
        -8.0
      ],
      "type": "VEC3"
    },
    {
      "bufferView": 2,
      "byteOffset": 15912,
      "componentType": 5126,
      "count": 1326,
      "max": [
        1.0,
        1.0,
        1.0
      ],
      "min": [
        -1.0,
        -1.0,
        -1.0
      ],
      "type": "VEC3"
    },
    {
      "bufferView": 1,
      "componentType": 5126,
      "count": 1326,
      "max": [
        9.5,
        22.627838134765625
      ],
      "min": [
        -8.0,
        -22.627838134765625
      ],
      "type": "VEC2"
    },
    {
      "bufferView": 0,
      "componentType": 5125,
      "count": 4548,
      "type": "SCALAR"
    }
  ],
  "asset": {
    "extras": {
      "author": "Ludus101 (https://sketchfab.com/Ludus101)",
      "license": "CC-BY-4.0 (http://creativecommons.org/licenses/by/4.0/)",
      "source": "https://sketchfab.com/3d-models/super-mario-gold-coin-3febf5e6f2f642a1b7691dcedd47aca3",
      "title": "Super Mario Gold Coin"
    },
    "generator": "Sketchfab-14.83.0",
    "version": "2.0"
  },
  "bufferViews": [
    {
      "buffer": 0,
      "byteLength": 18192,
      "name": "floatBufferViews",
      "target": 34963
    },
    {
      "buffer": 0,
      "byteLength": 10608,
      "byteOffset": 18192,
      "byteStride": 8,
      "name": "floatBufferViews",
      "target": 34962
    },
    {
      "buffer": 0,
      "byteLength": 31824,
      "byteOffset": 28800,
      "byteStride": 12,
      "name": "floatBufferViews",
      "target": 34962
    }
  ],
  "buffers": [
    {
      "byteLength": 60624,
      "uri": "scene.bin"
    }
  ],
  "materials": [
    {
      "doubleSided": true,
      "name": "Gold_-_Polished",
      "pbrMetallicRoughness": {
        "baseColorFactor": [
          0.9899636880863927,
          0.7604977008076299,
          0.12143180310035867,
          1.0
        ],
        "roughnessFactor": 0.1299021101778597
      }
    }
  ],
  "meshes": [
    {
      "name": "Body1_Gold - Polished_0",
      "primitives": [
        {
          "attributes": {
            "NORMAL": 1,
            "POSITION": 0,
            "TEXCOORD_0": 2
          },
          "indices": 3,
          "material": 0,
          "mode": 4
        }
      ]
    }
  ],
  "nodes": [
    {
      "children": [
        1
      ],
      "matrix": [
        1.6196838772710862,
        -0.782443039350994,
        -1.1218159672764616,
        0.0,
        -0.38281659139556723,
        -1.928609603519931,
        0.7924520397066881,
        0.0,
        -1.3130649266432783,
        -0.4028792277603369,
        -1.6148104094288556,
        0.0,
        0.0,
        0.0,
        0.0,
        1.0
      ],
      "name": "Sketchfab_model"
    },
    {
      "children": [
        2
      ],
      "matrix": [
        0.0010000000474974513,
        0.0,
        0.0,
        0.0,
        0.0,
        0.0,
        0.0010000000474974513,
        0.0,
        0.0,
        -0.0010000000474974513,
        0.0,
        0.0,
        0.0,
        0.0,
        0.0,
        1.0
      ],
      "name": "Coin.fbx"
    },
    {
      "children": [
        3
      ],
      "name": "RootNode"
    },
    {
      "children": [
        4
      ],
      "name": "Super Mario Coin - Mario v1"
    },
    {
      "children": [
        5
      ],
      "matrix": [
        10.0,
        0.0,
        0.0,
        0.0,
        0.0,
        10.0,
        0.0,
        0.0,
        0.0,
        0.0,
        10.0,
        0.0,
        0.0,
        0.0,
        0.0,
        1.0
      ],
      "name": "Body1"
    },
    {
      "mesh": 0,
      "name": "Body1_Gold - Polished_0"
    }
  ],
  "scene": 0,
  "scenes": [
    {
      "name": "Sketchfab_Scene",
      "nodes": [
        0
      ]
    }
  ]
}
